<svg xmlns="http://www.w3.org/2000/svg" width="86" height="28" viewBox="0 0 86 28" fill="none">
    <title>Entigo logo</title>
    <path d="M44.8332 5.12947V5.34058e-05H50L44.8332 5.12947ZM69.751 16.6337V11.4616C69.751 7.79025 72.5311 5.23629 77.4688 5.23629C79.9215 5.23629 81.7857 5.81089 83.1264 6.99219C84.4672 8.14146 85.1213 9.64173 85.1213 11.4616V16.6337C85.1213 20.3374 82.3415 22.8914 77.4688 22.8914C72.4981 22.8914 69.751 20.3374 69.751 16.6337ZM79.9541 16.474V11.7173C79.9541 10.5996 79.0713 9.76955 77.4688 9.76955C75.7684 9.76955 74.9178 10.5996 74.9178 11.7173V16.474C74.9178 17.5277 75.7684 18.3577 77.4688 18.3577C79.0713 18.3577 79.9541 17.5277 79.9541 16.474ZM67.6916 5.61921V21.4228C67.6916 25.6691 64.7157 28 60.1047 28C55.4284 28 52.7795 25.8605 52.7795 22.2851H57.9137C57.9137 23.0828 58.6331 23.466 60.072 23.466C61.7072 23.466 62.5248 22.7959 62.5248 21.4228V19.9542C61.4128 20.6884 60.072 21.0716 58.4696 21.0716C56.7362 21.0716 55.2646 20.5608 54.0873 19.539C52.9101 18.4857 52.3213 16.9531 52.3213 14.9096V11.3977C52.3213 7.31124 54.9702 5.23604 58.5025 5.23604C60.3664 5.23604 62.0342 5.87457 63.5058 7.15171L65.0397 5.61921H67.6916ZM62.5248 15.1656V11.1107C61.5763 10.2165 60.5626 9.76929 59.5489 9.76929C58.6331 9.76929 57.4885 10.5041 57.4885 11.7813V14.4628C57.4885 15.7719 58.6331 16.5383 59.5489 16.5383C60.5626 16.5383 61.5437 16.0911 62.5248 15.1656ZM44.8332 5.61915H50.0001V22.5085H44.8332V5.61915ZM41.1707 22.5083C36.6253 22.5083 34.3688 20.2416 34.3688 15.676V9.95237V5.6099V0.00030899H39.5359V5.6099H44.3222L39.5359 10.2832V15.5802C39.5359 17.5918 40.2552 18.1664 41.7925 18.1664H43.1985V22.5083H41.1707ZM17.0372 22.5083V5.61895H19.6834L21.2233 7.15152C22.662 5.87464 24.3297 5.2361 26.194 5.2361C30.0201 5.2361 32.2436 7.75841 32.2436 11.8768V22.5083H27.0768V12.1322C27.0768 10.5998 26.2266 9.76974 25.0167 9.76974C23.9374 9.76974 23.0216 10.2165 22.2041 11.1108V22.5083H17.0372ZM0 16.6977V11.4615C0 7.59876 3.10673 5.23629 7.71772 5.23629C12.067 5.23629 15.0432 7.43898 15.0432 11.398V15.7398H5.16678V16.6656C5.16678 17.7831 6.01735 18.3577 7.71772 18.3577C8.86237 18.3577 9.58166 18.0388 9.87605 17.3682H15.0102C14.7162 20.8481 12.0017 22.8913 7.71772 22.8913C3.04145 22.8913 0 20.6883 0 16.6977ZM5.16678 12.1321H9.87605V11.2382C9.87605 10.1528 9.09115 9.60977 7.52161 9.60977C5.95175 9.60977 5.16678 10.1528 5.16678 11.2382V12.1321Z" fill="#ffffff"></path>
</svg>